<svg width="104" height="104" viewBox="0 0 104 104" xmlns="http://www.w3.org/2000/svg">
    <title>
        7A339C42-FF1D-4F9F-984B-38FE68631402
    </title>
    <g fill="none" fill-rule="evenodd">
        <path d="M0 0h104v104H0z"/>
        <path d="M50.727 42c-4.84 0-9.192 2.648-12.348 5.223-3.156 2.578-5.168 5.164-5.168 5.164l-.902 1.156 1.41.414s.547.152 1.203.824c.652.668 1.351 1.809 1.351 3.969 0 2.8.43 5.063.645 6.02A2.741 2.741 0 0 0 36 66.8c0 .65.195 1.204.355 1.747.079.273.157.527.208.719.05.191.062.379.062.234 0 1.39 1.18 2.5 2.563 2.5h.058A13.004 13.004 0 0 0 44 80.516v3.027l-3.043 2.629c-2.262.988-5.828 2.578-8.926 4.535-1.578.996-3.031 2.078-4.133 3.266C26.797 95.16 26 96.5 26 98v6h52v-6c0-1.5-.797-2.84-1.898-4.027-1.102-1.188-2.555-2.27-4.133-3.266-3.098-1.957-6.664-3.547-8.926-4.535L60 83.543V80.52c2.563-2.055 4.309-5.079 4.754-8.52h.058c1.383 0 2.563-1.11 2.563-2.5 0 .145.012-.043.063-.234.05-.192.128-.446.207-.72.16-.542.355-1.097.355-1.745 0-.82-.371-1.543-.941-2.055.183-1.055.941-5.57.941-8.746 0-3.594-1.344-6.168-3.156-7.766-1.63-1.43-3.543-2.004-5.239-2.125-.273-.433-.757-1.113-1.761-1.898C56.402 43.09 54.09 42 50.727 42zm0 2c2.937 0 4.761.91 5.882 1.79 1.125.878 1.496 1.651 1.496 1.651l.274.559H59c1.332 0 3.125.508 4.52 1.738C64.918 50.968 66 52.891 66 56c0 2.79-.664 6.86-.86 8h-.015c-.086 0-.07.02-.125.027V61c0-3.422-1.398-5.723-2.805-7.086-1.406-1.363-2.879-1.863-2.879-1.863l-.57-.192-.437.418s-.63.618-2.149 1.313C54.64 54.285 52.29 55 49 55c-1.8 0-4.172.637-6.23 2.074-2.051 1.434-3.758 3.778-3.766 6.957-.055-.008-.043-.031-.129-.031-.023 0-.047.008-.07.008a25.783 25.783 0 0 1-.532-5.258c0-2.617-.937-4.355-1.918-5.363-.417-.43-.511-.356-.875-.57.692-.813 1.977-2.255 4.165-4.04C42.617 46.352 46.633 44 50.727 44zM59 54.156c.242.094.875.293 1.805 1.192C61.898 56.41 63 58.105 63 61v6.305l1.504-.883c.258-.149.496-.281.664-.367.02-.012.027-.012.047-.024.457.047.785.367.785.766v.004c0 .074-.121.66-.273 1.183-.079.258-.157.52-.223.758-.063.238-.129.406-.129.758 0 .266-.219.5-.563.5H63.02l-.047.95a10.988 10.988 0 0 1-9.032 10.237l-.285.047-.215.2c-.39.355-.882.566-1.441.566s-1.05-.215-1.445-.57l-.211-.196-.285-.046a10.988 10.988 0 0 1-9.032-10.239l-.05-.949h-1.79c-.343 0-.562-.234-.562-.5 0-.352-.066-.52-.133-.758-.066-.238-.144-.5-.222-.758-.153-.523-.27-1.109-.27-1.183 0-.403.328-.723.785-.77.02.012.028.012.047.024.168.086.406.218.664.367l1.504.883V64.05c0-2.492 1.242-4.168 2.914-5.336C45.586 57.547 47.711 57 49 57c3.582 0 6.23-.785 7.992-1.59 1.309-.597 1.653-.965 2.008-1.254zM46.5 66a1.5 1.5 0 1 0 0 3 1.5 1.5 0 0 0 0-3zm11 0a1.5 1.5 0 1 0 0 3 1.5 1.5 0 0 0 0-3zM46 81.828c1.07.567 2.227.992 3.453 1.238.703.555 1.574.934 2.547.934.973 0 1.836-.379 2.54-.934 1.23-.242 2.39-.671 3.46-1.238v2.582a20.784 20.784 0 0 1-1.574 1.906C55.094 87.734 53.34 89 52 89c-1.34 0-3.094-1.266-4.426-2.684A20.784 20.784 0 0 1 46 84.41v-2.582zm-1.496 3.922a22.52 22.52 0 0 0 1.61 1.934c.753.804 1.648 1.636 2.656 2.27l-3.758 2.503-1.957-5.453 1.449-1.254zm14.992 0l1.832 1.582-1.84 5.125-3.996-2.664c.903-.613 1.707-1.375 2.395-2.11a22.52 22.52 0 0 0 1.61-1.933zm-18.14 2.438l2.632 7.355 6.024-4.016.73 1.828-.664 8.645H28v-4c0-.762.453-1.684 1.367-2.668.914-.984 2.242-1.996 3.727-2.934 2.761-1.742 6.008-3.222 8.261-4.21zm21.722.187c2.227.988 5.234 2.387 7.828 4.023 1.485.938 2.813 1.95 3.727 2.934C75.547 96.316 76 97.238 76 98v4H53.922l-.664-8.645.836-2.09 6.418 4.278 2.566-7.168z" fill="#644733" fill-rule="nonzero"/>
    </g>
</svg>
