<svg width="104" height="104" viewBox="0 0 104 104" xmlns="http://www.w3.org/2000/svg">
    <title>
        9BF7842D-8B96-4FBF-B14C-21FA4191CF55
    </title>
    <g fill="none" fill-rule="evenodd">
        <path d="M0 0h104v104H0z"/>
        <path d="M50.5 37c-3.026 0-5.5 2.474-5.5 5.5v.855c-.959-.81-2.154-1.355-3.5-1.355-3.026 0-5.5 2.474-5.5 5.5v31.473l-4.543-4.659c-3.043-3.12-8.088-3.13-11.145-.023l-1.89 1.922 8.023 8.635c.08.18 1.397 3.215 3.743 6.912 2.391 3.77 5.723 8.066 9.816 10.22A9.947 9.947 0 0 0 46 104h15c6.615 0 12-5.385 12-12V55c0-2.75-2.25-5-5-5-1.145 0-2.155.455-3 1.11V46.5c0-3.026-2.474-5.5-5.5-5.5-1.357 0-2.564.55-3.525 1.373C55.903 39.409 53.48 37 50.5 37zm0 2c1.944 0 3.5 1.556 3.5 3.5v4h2c0-1.944 1.556-3.5 3.5-3.5s3.5 1.556 3.5 3.5V55h2c0-1.668 1.332-3 3-3s3 1.332 3 3v37c0 5.535-4.465 10-10 10H46a7.93 7.93 0 0 1-4.826-1.633l-.069-.053-.078-.04c-3.53-1.818-6.824-5.92-9.15-9.587-2.326-3.665-3.707-6.84-3.707-6.84l-.068-.156-6.913-7.439.55-.559a5.783 5.783 0 0 1 8.286.018L38 83.889V47.5c0-1.944 1.556-3.5 3.5-3.5s3.5 1.556 3.5 3.5h2v-5c0-1.944 1.556-3.5 3.5-3.5zM46 49a1 1 0 1 0 0 2 1 1 0 0 0 0-2zm9 0a1 1 0 1 0 0 2 1 1 0 0 0 0-2zm-9 4a1 1 0 1 0 0 2 1 1 0 0 0 0-2zm9 0a1 1 0 1 0 0 2 1 1 0 0 0 0-2zm-9 4a1 1 0 1 0 0 2 1 1 0 0 0 0-2zm9 0a1 1 0 1 0 0 2 1 1 0 0 0 0-2zm9 0a1 1 0 1 0 0 2 1 1 0 0 0 0-2zm-18 4a1 1 0 1 0 0 2 1 1 0 0 0 0-2zm9 0a1 1 0 1 0 0 2 1 1 0 0 0 0-2zm9 0a1 1 0 1 0 0 2 1 1 0 0 0 0-2zm-18 4a1 1 0 1 0 0 2 1 1 0 0 0 0-2zm9 0a1 1 0 1 0 0 2 1 1 0 0 0 0-2zm9 0a1 1 0 1 0 0 2 1 1 0 0 0 0-2zm-18 4a1 1 0 1 0 0 2 1 1 0 0 0 0-2zm9 0a1 1 0 1 0 0 2 1 1 0 0 0 0-2zm9 0a1 1 0 1 0 0 2 1 1 0 0 0 0-2zm-13.723 9C46.817 78 44 80.852 44 84.332c0 1.5.72 2.904 1.678 4.213.957 1.309 2.19 2.537 3.412 3.611a43.941 43.941 0 0 0 4.875 3.688l.535.342.535-.342s2.431-1.54 4.875-3.688c1.222-1.074 2.455-2.302 3.412-3.611C64.28 87.236 65 85.832 65 84.332 65 80.852 62.184 78 58.723 78c-1.675 0-3.099.782-4.223 1.863C53.375 78.782 51.952 78 50.277 78zm0 2c1.404 0 2.636.68 3.42 1.738l.803 1.084.803-1.084A4.235 4.235 0 0 1 58.723 80C61.092 80 63 81.922 63 84.332c0 .817-.467 1.906-1.291 3.031-.824 1.126-1.966 2.276-3.12 3.29-2.038 1.792-3.642 2.806-4.089 3.097-.447-.291-2.05-1.305-4.09-3.098-1.153-1.013-2.295-2.163-3.119-3.289C46.467 86.238 46 85.15 46 84.332 46 81.922 47.908 80 50.277 80z" fill="#644733" fill-rule="nonzero"/>
    </g>
</svg>
