<svg width="104" height="104" viewBox="0 0 104 104" xmlns="http://www.w3.org/2000/svg">
    <title>
        BFD0AF53-5BB2-49CB-B27C-F09E022F5DB3
    </title>
    <g fill="none" fill-rule="evenodd">
        <path d="M0 0h104v104H0z"/>
        <path d="M12 40v43h3v13h5.059c.5 4.488 4.32 8 8.941 8s8.441-3.512 8.941-8H62.06c.5 4.488 4.32 8 8.941 8s8.441-3.512 8.941-8H90c1.094 0 2-.906 2-2v-4c0-.707-.438-1.227-1-1.582V74.547L84.414 57.48A7.006 7.006 0 0 0 77.887 53H59V40H12zm2 2h43v39c-.55 0-1 .45-1 1s.45 1 1 1v11H37.941c-.5-4.488-4.32-8-8.941-8s-8.441 3.512-8.941 8H17V83c.55 0 1-.45 1-1s-.45-1-1-1h-3V42zm33.145 11.375L32.453 67.543 25 59.898l-2.148 2.094 9.535 9.778 16.84-16.235-2.082-2.16zM59 55h14v14c0 2.2 1.8 4 4 4h1.395a1.99 1.99 0 0 1 1.664.89l.218.329A4.001 4.001 0 0 0 83.605 76H89v2h-2c-2.2 0-4 1.8-4 4v1h.203c.457 1.707 1.953 3 3.797 3h2v2c-.55 0-1 .45-1 1s.45 1 1 1h1v4H79.941c-.5-4.488-4.32-8-8.941-8s-8.441 3.512-8.941 8H59V55zm16 0h2.887a4.99 4.99 0 0 1 4.66 3.2L88.645 74h-5.04a1.99 1.99 0 0 1-1.664-.89l-.222-.329A3.99 3.99 0 0 0 78.395 71H77c-1.117 0-2-.883-2-2V55zm-10 3c-1.645 0-3 1.355-3 3v9c0 1.645 1.355 3 3 3h2c1.645 0 3-1.355 3-3v-9c0-1.645-1.355-3-3-3h-2zm0 2h2c.566 0 1 .434 1 1v9c0 .566-.434 1-1 1h-2c-.566 0-1-.434-1-1v-9c0-.566.434-1 1-1zm22 20h2v4h-2c-1.117 0-2-.883-2-2s.883-2 2-2zm-66 1c-.55 0-1 .45-1 1s.45 1 1 1 1-.45 1-1-.45-1-1-1zm4 0c-.55 0-1 .45-1 1s.45 1 1 1 1-.45 1-1-.45-1-1-1zm4 0c-.55 0-1 .45-1 1s.45 1 1 1 1-.45 1-1-.45-1-1-1zm4 0c-.55 0-1 .45-1 1s.45 1 1 1 1-.45 1-1-.45-1-1-1zm4 0c-.55 0-1 .45-1 1s.45 1 1 1 1-.45 1-1-.45-1-1-1zm4 0c-.55 0-1 .45-1 1s.45 1 1 1 1-.45 1-1-.45-1-1-1zm4 0c-.55 0-1 .45-1 1s.45 1 1 1 1-.45 1-1-.45-1-1-1zm4 0c-.55 0-1 .45-1 1s.45 1 1 1 1-.45 1-1-.45-1-1-1zm4 0c-.55 0-1 .45-1 1s.45 1 1 1 1-.45 1-1-.45-1-1-1zm-24 7c3.879 0 7 3.121 7 7s-3.121 7-7 7-7-3.121-7-7 3.121-7 7-7zm42 0c3.879 0 7 3.121 7 7s-3.121 7-7 7-7-3.121-7-7 3.121-7 7-7zm10 0c-.55 0-1 .45-1 1s.45 1 1 1 1-.45 1-1-.45-1-1-1zm4 0c-.55 0-1 .45-1 1s.45 1 1 1 1-.45 1-1-.45-1-1-1zm-56 4c-1.645 0-3 1.355-3 3s1.355 3 3 3 3-1.355 3-3-1.355-3-3-3zm42 0c-1.645 0-3 1.355-3 3s1.355 3 3 3 3-1.355 3-3-1.355-3-3-3zm-42 2c.563 0 1 .438 1 1 0 .563-.438 1-1 1-.563 0-1-.438-1-1 0-.563.438-1 1-1zm42 0c.563 0 1 .438 1 1 0 .563-.438 1-1 1-.563 0-1-.438-1-1 0-.563.438-1 1-1z" fill="#644733" fill-rule="nonzero"/>
    </g>
</svg>
