<svg width="25" height="24" viewBox="0 0 25 24" xmlns="http://www.w3.org/2000/svg">
    <title>
        908EE95D-6253-4DC7-8195-8204667BBCE7
    </title>
    <path d="M.703.703a.993.993 0 0 0 .001 1.405L10.625 12l-9.92 9.892a.993.993 0 0 0-.002 1.405.997.997 0 0 0 1.408.002l9.951-9.893 9.921 9.892a.996.996 0 0 0 1.408-.001.993.993 0 0 0-.001-1.405L13.469 12l9.92-9.892a.993.993 0 0 0 .002-1.405.996.996 0 0 0-1.408 0l-9.92 9.89L2.11.702A.997.997 0 0 0 .703.703z" fill="#644733" fill-rule="evenodd"/>
</svg>
