<svg width="32" height="32" viewBox="0 0 32 32" xmlns="http://www.w3.org/2000/svg">
    <title>
        C6CEED0C-3E3B-4401-8DEF-DF30C4DC841D
    </title>
    <path d="M28.19 0H3.81A3.81 3.81 0 0 0 0 3.81v24.38A3.81 3.81 0 0 0 3.81 32h24.38A3.81 3.81 0 0 0 32 28.19V3.81A3.81 3.81 0 0 0 28.19 0zm-3.047 11.429h-1.524c-1.63 0-2.286.38-2.286 1.523v2.286h3.81l-.762 3.81h-3.048v11.428h-3.81V19.048h-3.047v-3.81h3.048v-2.286c0-3.047 1.524-5.333 4.571-5.333 2.21 0 3.048.762 3.048.762v3.048z" fill="#EE5F1F" fill-rule="nonzero"/>
</svg>
