<svg width="58" height="58" viewBox="0 0 58 58" xmlns="http://www.w3.org/2000/svg">
    <title>
        E9A43D54-4CAA-4B20-8A97-7EB5404D39ED
    </title>
    <g fill-rule="nonzero" fill="none">
        <path d="M53.84 34.36a3.09 3.09 0 0 0-.65 2.42l.95 6a1 1 0 0 1-.65 1.12l-5.66 2.17a3.09 3.09 0 0 0-1.78 1.77l-2.17 5.66a1 1 0 0 1-1.12.65l-6-.95a3.09 3.09 0 0 0-2.42.65l-4.71 3.81a1 1 0 0 1-1.29 0l-4.71-3.81a3.09 3.09 0 0 0-2.42-.65l-6 .95a1 1 0 0 1-1.12-.65l-2.17-5.66a3.09 3.09 0 0 0-1.77-1.78l-5.64-2.17a1 1 0 0 1-.65-1.12l.95-6a3.09 3.09 0 0 0-.65-2.42l-3.81-4.7a1 1 0 0 1 0-1.29l3.81-4.71a3.09 3.09 0 0 0 .65-2.42l-.95-6a1 1 0 0 1 .65-1.12l5.66-2.17a3.09 3.09 0 0 0 1.78-1.77l2.17-5.66a1 1 0 0 1 1.12-.65l6 .95a3.09 3.09 0 0 0 2.42-.65L28.37.35a1 1 0 0 1 1.29 0l4.71 3.81a3.09 3.09 0 0 0 2.42.65l6-.95a1 1 0 0 1 1.12.65l2.17 5.66a3.09 3.09 0 0 0 1.77 1.78l5.66 2.17a1 1 0 0 1 .65 1.12l-.95 6a3.09 3.09 0 0 0 .65 2.42l3.81 4.71a1 1 0 0 1 0 1.29l-3.83 4.7z" fill="#F0EAE4"/>
        <path d="M29 46a1 1 0 0 0-1 1v2a1 1 0 0 0 2 0v-2a1 1 0 0 0-1-1z" fill="#F6773E"/>
        <path d="M29 12a1 1 0 0 0 1-1V9a1 1 0 0 0-2 0v2a1 1 0 0 0 1 1z" fill="#F6773E"/>
        <path d="M49 28h-2a1 1 0 0 0 0 2h2a1 1 0 0 0 0-2z" fill="#F6773E"/>
        <path d="M11 30a1 1 0 0 0 0-2H9a1 1 0 0 0 0 2h2z" fill="#F6773E"/>
        <path d="M15.56 41l-1.41 1.41a1 1 0 1 0 1.41 1.41L17 42.44A1.018 1.018 0 0 0 15.56 41z" fill="#F6773E"/>
        <path d="M41.73 17.27a1 1 0 0 0 .71-.29l1.41-1.41a1 1 0 0 0-1.41-1.41L41 15.56a1 1 0 0 0 .71 1.71h.02z" fill="#F6773E"/>
        <path d="M42.44 41A1.018 1.018 0 1 0 41 42.44l1.41 1.41a1 1 0 0 0 1.41-1.41L42.44 41z" fill="#F6773E"/>
        <path d="M15.56 14.15a1 1 0 0 0-1.41 1.41L15.56 17A1.018 1.018 0 0 0 17 15.56l-1.44-1.41z" fill="#F6773E"/>
        <path d="M34.62 46.13a1 1 0 0 0-1.93.52l.52 1.93a1 1 0 1 0 1.93-.52l-.52-1.93z" fill="#F6773E"/>
        <path d="M23.38 11.87a1 1 0 0 0 1.93-.52l-.52-1.93a1 1 0 1 0-1.93.52l.52 1.93z" fill="#F6773E"/>
        <path d="M45.42 24.6a1 1 0 0 0 1.22.71l1.93-.52a1 1 0 1 0-.52-1.93l-1.93.52a1 1 0 0 0-.7 1.22z" fill="#F6773E"/>
        <path d="M12.58 33.4a1 1 0 0 0-1.22-.71l-1.93.52a1 1 0 1 0 .52 1.93l1.93-.52a1 1 0 0 0 .7-1.22z" fill="#F6773E"/>
        <path d="M20.5 43.72a1 1 0 0 0-1.37.37l-1 1.73a1 1 0 0 0 1.73 1l1-1.73a1 1 0 0 0-.36-1.37z" fill="#F6773E"/>
        <path d="M39.5 10.81a1 1 0 0 0-1.37.37l-1 1.73a1 1 0 0 0 1.73 1l1-1.73a1 1 0 0 0-.36-1.37z" fill="#F6773E"/>
        <path d="M46.82 38.13l-1.73-1a1 1 0 1 0-1 1.73l1.73 1a1 1 0 0 0 1-1.73z" fill="#F6773E"/>
        <path d="M11.18 19.87l1.73 1a1 1 0 0 0 1-1.73l-1.73-1a1 1 0 1 0-1 1.73z" fill="#F6773E"/>
        <path d="M38.87 44.09a1 1 0 0 0-1.73 1l1 1.73a1 1 0 1 0 1.73-1l-1-1.73z" fill="#F6773E"/>
        <path d="M19.13 13.91a1 1 0 0 0 1.73-1l-1-1.73a1 1 0 0 0-1.73 1l1 1.73z" fill="#F6773E"/>
        <path d="M43.72 20.5a1 1 0 0 0 1.37.37l1.73-1a1 1 0 1 0-1-1.73l-1.73 1a1 1 0 0 0-.37 1.36z" fill="#F6773E"/>
        <path d="M14.28 37.5a1 1 0 0 0-1.37-.37l-1.73 1a1 1 0 0 0 1 1.73l1.73-1a1 1 0 0 0 .37-1.36z" fill="#F6773E"/>
        <path d="M24.6 45.42a1 1 0 0 0-1.22.71l-.52 1.93a1 1 0 1 0 1.93.52l.52-1.93a1 1 0 0 0-.71-1.23z" fill="#F6773E"/>
        <path d="M33.4 12.58a1 1 0 0 0 1.22-.71l.52-1.93a1 1 0 1 0-1.93-.52l-.52 1.93a1 1 0 0 0 .71 1.23z" fill="#F6773E"/>
        <path d="M48.58 33.21l-1.93-.52a1 1 0 0 0-.52 1.93l1.93.52a1 1 0 1 0 .52-1.93z" fill="#F6773E"/>
        <path d="M9.42 24.79l1.93.52a1 1 0 0 0 .52-1.93l-1.93-.52a1 1 0 1 0-.52 1.93z" fill="#F6773E"/>
        <path d="M26 25v-3a3 3 0 0 0-3-3h-1a3 3 0 0 0-3 3v3a3 3 0 0 0 3 3h1a3 3 0 0 0 3-3zm-5 0v-3a1 1 0 0 1 1-1h1a1 1 0 0 1 1 1v3a1 1 0 0 1-1 1h-1a1 1 0 0 1-1-1z" fill="#644733"/>
        <path d="M38 36v-3a3 3 0 0 0-3-3h-1a3 3 0 0 0-3 3v3a3 3 0 0 0 3 3h1a3 3 0 0 0 3-3zm-2 0a1 1 0 0 1-1 1h-1a1 1 0 0 1-1-1v-3a1 1 0 0 1 1-1h1a1 1 0 0 1 1 1v3z" fill="#644733"/>
        <path d="M23.89 40.46l11-22a1 1 0 0 0-1.77-.93l-11 22a1 1 0 0 0 1.77.93z" fill="#644733"/>
    </g>
</svg>
