<svg width="44" height="56" viewBox="0 0 44 56" xmlns="http://www.w3.org/2000/svg">
    <title>
        6296614C-38FD-43F6-AF0A-7A2239DCD2E0
    </title>
    <g fill-rule="nonzero" fill="none">
        <rect fill="#F0EAE4" y="6.4" width="44" height="49.28" rx="2"/>
        <path d="M20.658 1.553a3 3 0 0 1 2.684 0l6.968 3.484a3 3 0 0 1 1.628 2.259l.406 2.84a3 3 0 0 1-2.97 3.424H14.626a3 3 0 0 1-2.97-3.424l.406-2.84a3 3 0 0 1 1.628-2.26l6.968-3.483z" stroke="#F6773E" stroke-width="2" fill="#F0EAE4"/>
        <g fill="#644733">
            <path d="M11.2 19.08a.88.88 0 0 0-.88.88v1.76a.88.88 0 1 0 1.76 0v-1.76a.88.88 0 0 0-.88-.88z"/>
            <path d="M15.6 22.6a.88.88 0 0 0 .88-.88v-1.76a.88.88 0 1 0-1.76 0v1.76c0 .486.394.88.88.88z"/>
            <path d="M20 22.6a.88.88 0 0 0 .88-.88v-1.76a.88.88 0 1 0-1.76 0v1.76c0 .486.394.88.88.88z"/>
            <path d="M24.4 22.6a.88.88 0 0 0 .88-.88v-1.76a.88.88 0 1 0-1.76 0v1.76c0 .486.394.88.88.88z"/>
            <path d="M28.8 22.6a.88.88 0 0 0 .88-.88v-1.76a.88.88 0 1 0-1.76 0v1.76c0 .486.394.88.88.88z"/>
            <path d="M33.2 22.6a.88.88 0 0 0 .88-.88v-1.76a.88.88 0 1 0-1.76 0v1.76c0 .486.394.88.88.88z"/>
        </g>
        <circle fill="#F6773E" cx="22" cy="7.28" r="1.76"/>
        <path d="M17.6 25.88a.88.88 0 1 0 0 1.76h15.84a.88.88 0 1 0 0-1.76H17.6z" fill="#644733"/>
        <path d="M17.6 32.92h12.32a.88.88 0 1 0 0-1.76H17.6a.88.88 0 1 0 0 1.76z" fill="#644733"/>
        <path d="M22.88 41.72H17.6a.88.88 0 1 0 0 1.76h5.28a.88.88 0 1 0 0-1.76z" fill="#644733"/>
        <path d="M31.68 36.44H17.6a.88.88 0 1 0 0 1.76h14.08a.88.88 0 1 0 0-1.76z" fill="#644733"/>
        <path d="M12.575 25.255L11.44 26.4l-.255-.255a.88.88 0 0 0-1.241 1.24l.88.88a.88.88 0 0 0 1.24 0l1.76-1.76a.88.88 0 0 0-1.24-1.24l-.009-.009z" fill="#644733"/>
        <path d="M12.575 30.535L11.44 31.68l-.255-.255a.88.88 0 0 0-1.241 1.24l.88.88a.88.88 0 0 0 1.24 0l1.76-1.76a.88.88 0 0 0-1.24-1.24l-.009-.009z" fill="#644733"/>
        <path d="M12.575 35.815L11.44 36.96l-.255-.255a.88.88 0 0 0-1.241 1.24l.88.88a.88.88 0 0 0 1.24 0l1.76-1.76a.88.88 0 0 0-1.24-1.24l-.009-.009z" fill="#644733"/>
        <path d="M12.575 41.095L11.44 42.24l-.255-.255a.88.88 0 0 0-1.241 1.24l.88.88a.88.88 0 0 0 1.24 0l1.76-1.76a.88.88 0 0 0-1.24-1.24l-.009-.009z" fill="#644733"/>
    </g>
</svg>
