<svg width="62" height="56" viewBox="0 0 62 56" xmlns="http://www.w3.org/2000/svg">
    <title>
        9E72C882-8443-4921-939C-E28F4DF5F447
    </title>
    <g fill-rule="nonzero" fill="none">
        <path d="M48.52 19.597c.08-9.91-7.69-18.01-17.355-18.092C21.5 1.423 13.6 9.39 13.52 19.299c-.05 6.296 3.7 12.007 8.48 16.703v1.897C22 40.164 23.79 42 26 42h10c2.21 0 4-1.836 4-4.101V35.94c4.75-4.573 8.47-10.181 8.52-16.343z" fill="#F0EAE4"/>
        <path fill="#F0EAE4" d="M33 56h-4v-3h4z"/>
        <path d="M33 53h-4a6 6 0 0 1-6-6v-6h16v6a6 6 0 0 1-6 6z" fill="#F0EAE4"/>
        <path d="M8 19a1 1 0 0 0-1-1H1a1 1 0 0 0 0 2h6a1 1 0 0 0 1-1z" fill="#F6773E"/>
        <path d="M61 18h-6a1 1 0 0 0 0 2h6a1 1 0 0 0 0-2z" fill="#F6773E"/>
        <path d="M8.37 27.06l-3.71 1.5a1 1 0 1 0 .75 1.85l3.71-1.5a1 1 0 0 0-.75-1.85z" fill="#F6773E"/>
        <path d="M53.25 11a1 1 0 0 0 .37-.07l3.71-1.5a1 1 0 0 0-.75-1.85l-3.71 1.5a1 1 0 0 0 .38 1.92z" fill="#F6773E"/>
        <path d="M9.12 9.08l-3.71-1.5a1 1 0 1 0-.75 1.85l3.71 1.5a1 1 0 0 0 .75-1.85z" fill="#F6773E"/>
        <path d="M57.34 28.56l-3.71-1.5a1 1 0 1 0-.75 1.85l3.71 1.5a1 1 0 0 0 .75-1.85z" fill="#F6773E"/>
        <path d="M30.29 26.29A1 1 0 0 0 30 27v6a1 1 0 0 0 2 0v-5.59l3.71-3.71a1 1 0 0 0-1.41-1.41l-4.01 4z" fill="#F6773E"/>
        <path d="M31 0C20.507 0 12 8.507 12 19c0 5 2.78 8.69 5.47 12.28 2.15 2.88 4.18 5.61 4.53 8.72v7a7 7 0 0 0 6 6.92V55a2 2 0 0 0 2 2h2a2 2 0 0 0 2-2v-1.08A7 7 0 0 0 40 47v-6.1c0-3.5 2.22-6.47 4.57-9.62C47.24 27.69 50 24 50 19 50 8.507 41.493 0 31 0zm-7 42h14v1.12l-14 1.75V42zm8 13h-2v-1h2v1zm1-3h-4a5 5 0 0 1-5-5v-.12l14-1.75V47.12l-10.17 1.27a1.002 1.002 0 0 0 .12 2h.13l9.39-1.17A5 5 0 0 1 33 52zm10-21.91c-2.24 3-4.56 6.13-4.92 9.85H32V37a1 1 0 0 0-2 0v2.94h-6c-.36-3.73-2.69-6.84-5-9.86-2.42-3.33-5-6.77-5-11.08 0-9.389 7.611-17 17-17s17 7.611 17 17c0 4.31-2.56 7.76-5 11.09z" fill="#F0EAE4"/>
        <path d="M22 40v7a7 7 0 0 0 6 6.92h6A7 7 0 0 0 40 47v-7H22zm2 2h14v1.12l-14 1.75V42zm9 10h-4a5 5 0 0 1-5-5v-.12l14-1.75V47.12l-10.17 1.27a1.002 1.002 0 0 0 .12 2h.13l9.39-1.17A5 5 0 0 1 33 52z" fill="#644733"/>
        <path d="M29.71 24.29l-2-2a1 1 0 0 0-1.41 1.41l2 2a1 1 0 0 0 1.41-1.41z" fill="#F6773E"/>
        <path d="M38.23 7a1 1 0 0 0-1 1.71 12 12 0 0 1 2.28 1.79 1 1 0 0 0 1.39-1.4A14 14 0 0 0 38.23 7z" fill="#F6773E"/>
        <path d="M33.18 7.2a1.016 1.016 0 0 0 .36-2 13.94 13.94 0 0 0-10.23 2.1 1.012 1.012 0 0 0 1.1 1.7 12 12 0 0 1 8.77-1.8z" fill="#F6773E"/>
    </g>
</svg>
