<svg width="32" height="32" viewBox="0 0 32 32" xmlns="http://www.w3.org/2000/svg">
    <title>
        8C9138EA-FDD5-4FF7-B0C9-5D2A983400AF
    </title>
    <g fill-rule="nonzero" fill="none">
        <path d="M3.81 0A3.81 3.81 0 0 0 0 3.81v24.38A3.81 3.81 0 0 0 3.81 32h24.38A3.81 3.81 0 0 0 32 28.19V3.81A3.81 3.81 0 0 0 28.19 0H3.81z" fill="#EE5F1F"/>
        <path d="M25.273 5.182c.85 0 1.545.695 1.545 1.545a1.55 1.55 0 0 1-1.545 1.546 1.55 1.55 0 0 1-1.546-1.546c0-.85.696-1.545 1.546-1.545zM16 7.5c4.69 0 8.5 3.81 8.5 8.5 0 4.69-3.81 8.5-8.5 8.5-4.69 0-8.5-3.81-8.5-8.5 0-4.69 3.81-8.5 8.5-8.5zm0 1.545c-3.833 0-6.955 3.122-6.955 6.955s3.122 6.955 6.955 6.955 6.955-3.122 6.955-6.955S19.833 9.045 16 9.045z" fill="#FFF"/>
    </g>
</svg>
