<svg width="32" height="32" viewBox="0 0 32 32" xmlns="http://www.w3.org/2000/svg">
    <title>
        D9DE59E4-E928-42BC-9436-754411C8DF18
    </title>
    <path d="M3.81 0A3.81 3.81 0 0 0 0 3.81v24.38A3.81 3.81 0 0 0 3.81 32h24.38A3.81 3.81 0 0 0 32 28.19V3.81A3.81 3.81 0 0 0 28.19 0H3.81zM16 3.81a6.094 6.094 0 0 1 6.095 6.095A6.094 6.094 0 0 1 16 16a6.094 6.094 0 0 1-6.095-6.095A6.094 6.094 0 0 1 16 3.81zm0 3.047a3.048 3.048 0 1 0 0 6.095 3.048 3.048 0 0 0 0-6.095zm6.095 10.278c.48 0 .953.229 1.25.655a1.52 1.52 0 0 1-.38 2.12 12.07 12.07 0 0 1-3.727 1.743l3.932 3.94a1.504 1.504 0 0 1 0 2.148c-.298.297-.686.45-1.075.45-.388 0-.777-.153-1.074-.45L16 22.728l-5.02 5.013c-.298.297-.687.45-1.075.45-.389 0-.777-.153-1.075-.45a1.504 1.504 0 0 1 0-2.149l3.932-3.939a12.094 12.094 0 0 1-3.719-1.736 1.524 1.524 0 1 1 1.746-2.5A9.081 9.081 0 0 0 16 19.047a9.079 9.079 0 0 0 5.226-1.638c.26-.183.564-.274.87-.274z" fill="#EE5F1F" fill-rule="nonzero"/>
</svg>
