<svg width="29" height="29" viewBox="0 0 29 29" xmlns="http://www.w3.org/2000/svg">
    <title>
        AA3DF82D-A704-49FF-99D3-3D8E42698C19
    </title>
    <path d="M14.5 28C7.056 28 1 21.944 1 14.5a.643.643 0 1 1 1.286 0c0 6.735 5.479 12.214 12.214 12.214S26.714 21.235 26.714 14.5 21.235 2.286 14.5 2.286a12.183 12.183 0 0 0-9.464 4.5h3.678a.643.643 0 1 1 0 1.285H2.93V2.286a.643.643 0 1 1 1.285 0v3.47A13.467 13.467 0 0 1 14.5 1C21.944 1 28 7.056 28 14.5S21.944 28 14.5 28z" fill="#F6773E" fill-rule="nonzero" stroke="#F6773E" stroke-width=".8"/>
</svg>
