<svg width="29" height="29" viewBox="0 0 29 29" xmlns="http://www.w3.org/2000/svg">
    <title>
        420A37D4-989E-45DD-B7F1-04441CEB43C1
    </title>
    <path d="M11.328 0C5.082 0 0 5.082 0 11.328c0 6.247 5.082 11.328 11.328 11.328 2.5 0 4.81-.814 6.684-2.19 0 0 1.258 1.233 1.318 1.254l-.001.03c0 .605.235 1.175.663 1.602l4.687 4.687a2.255 2.255 0 0 0 1.602.662c.58 0 1.161-.22 1.602-.662l.156-.158c.428-.426.664-.994.664-1.6 0-.605-.236-1.175-.664-1.602l-4.687-4.687a2.247 2.247 0 0 0-1.63-.658c-.023-.062-1.255-1.322-1.255-1.322a11.26 11.26 0 0 0 2.19-6.684C22.656 5.082 17.574 0 11.327 0zm0 .906c5.747 0 10.422 4.675 10.422 10.422 0 5.747-4.675 10.422-10.422 10.422C5.581 21.75.906 17.075.906 11.328.906 5.581 5.581.906 11.328.906zm0 1.813c-2.3 0-4.462.895-6.089 2.52-3.356 3.358-3.356 8.82 0 12.176a8.556 8.556 0 0 0 6.09 2.523c2.298 0 4.461-.896 6.088-2.521 3.356-3.358 3.356-8.82 0-12.178a8.561 8.561 0 0 0-6.089-2.52zm0 .906c2.057 0 3.992.802 5.446 2.257 3.004 3.002 3.004 7.89 0 10.892a7.653 7.653 0 0 1-5.446 2.257 7.653 7.653 0 0 1-5.446-2.257c-3.004-3.001-3.004-7.889 0-10.892a7.653 7.653 0 0 1 5.446-2.257zm-.087 1.36a6.318 6.318 0 0 0-4.4 1.856.455.455 0 0 0 .643.643 5.411 5.411 0 0 1 4.379-1.567.453.453 0 1 0 .089-.903 6.365 6.365 0 0 0-.71-.03zm3.195.849a.456.456 0 0 0-.453.216.451.451 0 0 0 .156.621c.372.227.72.5 1.034.813a.457.457 0 0 0 .643 0 .456.456 0 0 0 0-.641 6.466 6.466 0 0 0-1.21-.947.47.47 0 0 0-.17-.062zm-9.452 5.041a.453.453 0 1 0 0 .906h.907a.453.453 0 1 0 0-.906h-.907zm11.782 0a.453.453 0 1 0 0 .906h.906a.453.453 0 1 0 0-.906h-.906zM6.294 12.912a.441.441 0 0 0-.177.032l-.84.34a.452.452 0 0 0-.25.59.453.453 0 0 0 .59.25l.84-.34a.452.452 0 0 0-.163-.872zm10.04.087a.454.454 0 0 0-.177.87l.833.355a.453.453 0 0 0 .354-.834l-.833-.354a.454.454 0 0 0-.177-.037zm-8.85 1.72a.45.45 0 0 0-.32.133l-.641.641a.453.453 0 1 0 .64.64l.641-.64a.453.453 0 0 0-.32-.774zm7.689 0a.453.453 0 0 0-.32.774l.64.64a.45.45 0 0 0 .64 0 .453.453 0 0 0 0-.64l-.64-.64a.453.453 0 0 0-.32-.134zm-5.969 1.162a.451.451 0 0 0-.418.276l-.354.833a.455.455 0 0 0 .836.354l.354-.833a.455.455 0 0 0-.418-.63zm4.168.035a.452.452 0 0 0-.428.623l.34.84a.452.452 0 0 0 .591.25.452.452 0 0 0 .25-.589l-.34-.84a.454.454 0 0 0-.413-.284zm-2.044.396a.453.453 0 0 0-.453.454v.906a.453.453 0 1 0 .906 0v-.906a.453.453 0 0 0-.453-.453zm8.569 2.413l.85.851a2.24 2.24 0 0 0-.599.418l-.156.154c-.177.177-.31.38-.417.597l-.85-.848c.42-.361.81-.752 1.172-1.172zm1.853 1.51c.349 0 .697.133.963.398L27.4 25.32c.257.257.396.598.396.961s-.141.705-.398.961l-.156.156c-.53.53-1.39.53-1.922 0l-4.687-4.687a1.351 1.351 0 0 1-.398-.961c0-.363.141-.704.398-.961l.156-.156c.265-.265.614-.398.961-.398z" fill="#3E2311" fill-rule="nonzero"/>
</svg>
