<svg width="242" height="79" viewBox="0 0 242 79" xmlns="http://www.w3.org/2000/svg">
    <title>
        6AD5A1EA-1AC5-4B0E-A768-C17A01172892
    </title>
    <path d="M.498 22.892L236.851.77l-.922 3.596 1.455 3.604-1.294 2.983 2.349 3.36-.609 4.116 1.201 4.076-.878 4.015 1.652 3.176-1.106 3.73 2.311 3.629-1.455 3.453L241.611 44l-2.047 3.488 1.71 2.542-2.158 3.185 1.601 2.84L4.364 78.178 6.307 74.5l-3.344-2.784 2.997-5.212-2.783-2.536 2.52-3.1-2.78-2.346 3.108-4.085-3.75-3.374 3.428-4.57-3.099-4.257 2.577-3.252-3.142-3.45 2.69-3.02-3.131-3.209L3.45 25.74z" fill="#F6773E" fill-rule="evenodd"/>
</svg>
