<svg xmlns="http://www.w3.org/2000/svg" width="242" height="78" viewBox="0 0 242 78">
    <path fill="#EBE1D8" fill-rule="evenodd" d="M.334 22.242L236.686.12l-.922 3.596 1.455 3.605-1.294 2.982 2.349 3.36-.609 4.116 1.201 4.077-.878 4.014 1.652 3.176-1.106 3.73 2.312 3.63-1.456 3.452 2.057 3.492-2.048 3.487 1.71 2.543-2.157 3.184 1.6 2.84L4.2 77.528l1.943-3.677L2.8 71.066l2.996-5.211-2.782-2.536 2.519-3.101-2.78-2.346 3.108-4.085-3.75-3.374 3.428-4.57-3.098-4.257 2.576-3.252-3.141-3.45 2.69-3.02-3.132-3.208 1.852-3.566z"/>
</svg>
