<svg width="242" height="78" viewBox="0 0 242 78" xmlns="http://www.w3.org/2000/svg">
    <title>
        0380B17C-C36A-40D9-B83F-46C201AE500A
    </title>
    <path fill="#fff" d="M.498 22.242L236.851.12l-.922 3.596 1.455 3.605-1.294 2.982 2.349 3.36-.609 4.116 1.201 4.077-.878 4.014 1.652 3.176-1.106 3.73 2.311 3.63-1.455 3.452 2.056 3.492-2.047 3.487 1.71 2.543-2.158 3.184 1.601 2.84L4.364 77.528l1.943-3.677-3.344-2.784 2.997-5.211-2.783-2.536 2.52-3.101-2.78-2.346 3.108-4.085-3.75-3.374 3.428-4.57-3.099-4.257 2.577-3.252-3.142-3.45 2.69-3.02-3.131-3.208L3.45 25.09z" fill-rule="evenodd"/>
</svg>
