<svg width="301" height="85" viewBox="0 0 301 85" xmlns="http://www.w3.org/2000/svg">
    <title>
        6865DF6C-6FD1-4B2F-9E06-26D5C4E9654C
    </title>
    <path d="M.892 29.303L295.764.379l-.922 3.596 1.455 3.604-1.295 2.983 2.35 3.36-.61 4.116 1.202 4.076-.878 4.015 1.651 3.176-1.106 3.73 2.312 3.629-1.455 3.453 2.056 3.491-2.047 3.488 1.71 2.542-2.158 3.185 1.6 2.84L4.76 84.589 6.7 80.91l-3.343-2.783 2.996-5.212-2.782-2.536 2.519-3.1-2.78-2.346 3.108-4.085-3.75-3.374 3.428-4.57-3.098-4.258 2.576-3.25-3.141-3.451 2.689-3.02-3.131-3.209 1.852-3.565z" fill="#F0EAE4" fill-rule="evenodd"/>
</svg>
