<svg width="32" height="32" viewBox="0 0 32 32" xmlns="http://www.w3.org/2000/svg">
    <title>
        EB71DC02-6E40-4FF2-A13F-05A83AAB6F2D
    </title>
    <g fill-rule="nonzero" fill="none">
        <path d="M3.81 0A3.81 3.81 0 0 0 0 3.81v24.38A3.81 3.81 0 0 0 3.81 32h24.38A3.81 3.81 0 0 0 32 28.19V3.81A3.81 3.81 0 0 0 28.19 0H3.81z" fill="#F0EAE4"/>
        <path d="M27.603 9.3c-.781.348-1.62.58-2.5.686a4.361 4.361 0 0 0 1.914-2.406c-.84.498-1.774.86-2.764 1.054a4.34 4.34 0 0 0-3.174-1.373 4.35 4.35 0 0 0-4.238 5.341 12.353 12.353 0 0 1-8.967-4.546 4.334 4.334 0 0 0-.588 2.188c0 1.509.767 2.841 1.935 3.623a4.347 4.347 0 0 1-1.972-.546v.055c0 2.109 1.501 3.865 3.49 4.267a4.353 4.353 0 0 1-1.966.073 4.36 4.36 0 0 0 4.064 3.022A8.72 8.72 0 0 1 7.434 22.6c-.352 0-.697-.02-1.036-.06a12.292 12.292 0 0 0 6.669 1.954c8.002 0 12.378-6.629 12.378-12.376 0-.189-.005-.379-.012-.564a8.844 8.844 0 0 0 2.17-2.253z" fill="#FFF"/>
    </g>
</svg>
