<svg width="32" height="32" viewBox="0 0 32 32" xmlns="http://www.w3.org/2000/svg">
    <title>
        15F893B9-0D14-45B6-AD24-196CA9F7EA56
    </title>
    <path d="M28.19 0H3.81A3.81 3.81 0 0 0 0 3.81v24.38A3.81 3.81 0 0 0 3.81 32h24.38A3.81 3.81 0 0 0 32 28.19V3.81A3.81 3.81 0 0 0 28.19 0zm-2.499 22.095l-2.841-.007s-.061.007-.16.007c-.229 0-.701-.06-1.258-.442-.998-.693-1.95-2.415-2.704-2.415a.444.444 0 0 0-.145.023c-.655.206-.853.86-.853 1.66 0 .283-.199.412-.732.412h-1.47c-1.646 0-3.238-.038-5.029-1.996-2.636-2.887-5.105-8.023-5.105-8.023s-.137-.297.008-.472c.137-.16.457-.175.579-.175h3.093s.282.053.488.205c.175.13.267.366.267.366s.518 1.006 1.165 2.141c1.09 1.874 1.676 2.5 2.096 2.5a.415.415 0 0 0 .205-.054c.625-.343.442-3.116.442-3.116s.008-1.006-.32-1.448c-.251-.35-.731-.45-.945-.48-.167-.023.107-.42.473-.602.472-.229 1.257-.274 2.202-.274h.457c.891.015.914.106 1.265.19 1.051.252.693 1.235.693 3.589 0 .754-.137 1.813.404 2.171a.31.31 0 0 0 .16.038c.35 0 1.104-.45 2.308-2.483.67-1.159 1.189-2.309 1.189-2.309s.114-.206.29-.312c.167-.1.167-.1.388-.1h.023c.244 0 2.666-.022 3.2-.022h.06c.511 0 .976.007 1.06.32.122.472-.374 1.318-1.676 3.07-2.149 2.873-2.393 2.66-.61 4.32 1.707 1.585 2.057 2.354 2.118 2.453.709 1.174-.785 1.265-.785 1.265z" fill="#F0EAE4" fill-rule="nonzero"/>
</svg>
